<svg data-noselect="" viewBox="0 0 800 600" width="1600" height="1200" preserveAspectRatio="none" version="1.1" xmlns="http://www.w3.org/2000/svg" style="background: rgb(255, 255, 255);"><defs></defs> <g id="shape_JBMmGUXjms" transform="translate(247.91483544959,220.18294525146) rotate(5,88.537118428483,95.388997530549) scale(1,1)" filter="" style="cursor: move; opacity: 1;"><g><rect fill="rgba(0,0,0,0)" width="197.07423685697" height="210.7779950611" x="-10" y="-10"></rect><svg version="1.1" id="图层_1" xmlns="http://www.w3.org/2000/svg" xmlns:xlink="http://www.w3.org/1999/xlink" x="0px" y="0px" width="177.07423685697" height="190.7779950611" viewBox="13.960136413574219 9.796470642089844 172.03985595703125 185.35400390625" style="enable-background:new 0 0 200 200;" xml:space="preserve" preserveAspectRatio="none" data-parent="shape_JBMmGUXjms">
<style type="text/css">
	.st0{fill:#15BCC8;}
	.st1{fill:#1730C6;}
	.st2{fill:#033CDD;}
</style>
<g>
	<path class="" d="M174.46,147.38c1.79-1.26,3.47-2.61,5.04-3.93c-3.41,3.92-7.4,7.55-11.89,10.66
		c-29.87,20.88-71.01,13.59-91.89-16.28S62.15,66.81,92.02,45.94c17.4-12.14,38.58-14.83,57.34-8.99
		c-15.17-2.56-31.34,0.69-44.97,10.26c-27.62,19.32-34.37,57.51-15.05,85.13C108.67,160.05,146.74,166.72,174.46,147.38z" fill="#15BCC8"></path>
	<path class="" d="M186,152.1c-21.2,33.1-62.1,50.5-102.3,40C33.9,179,4,128,17,78.1C25.6,45.2,50.7,21,81.1,12
		C62,23.4,47.2,42,41.1,65.3c-12.3,47,15.9,95.1,62.9,107.3C134.2,180.5,164.7,171.7,186,152.1z" fill="#1730C6"></path>
	<path class="" d="M182.62,45.27c-11.32-11.12-26.37-18.65-43.35-20.56c-40.63-4.63-77.27,24.53-82,65.14
		c-1.91,16.98,2.04,33.37,10.29,46.9C51.75,121.3,43.04,98.98,45.75,75.42c4.63-40.63,41.36-69.77,82-65.14
		C151.44,12.81,171.14,26.34,182.62,45.27z" fill="#033CDD"></path>
</g>
</svg></g> <!----></g><g id="shape_p7cq4kc1mh" transform="translate(310.68518066406,285.23768615722656) rotate(0,65.66000000000001,37.323839479249266) scale(1,1)" filter="" style="cursor: move; opacity: 1;"><g><svg xmlns="http://www.w3.org/2000/svg" version="1.1" xmlns:xlink="http://www.w3.org/1999/xlink" overflow="hidden" style="top:0; left: 0" width="131.32000000000002" height="74.64767895849853" viewBox="0 0 146.32000000000002 86.0165" preserveAspectRatio="none" data-parent="shape_p7cq4kc1mh"><rect fill="rgba(0,0,0,0)" width="151.32000000000002" height="86.0165"></rect> <rect opacity="0"></rect><g transform="translate(0 0)" data-width="141.32000000000002"><path fill="#2921B7" d="M60.78-31.81L60.78-27.12L50.27-21.30L66.53-21.30L66.53-14.56L43.52-14.56L43.52-6.82Q43.52-3.98 41.57-2.02Q39.62-0.07 36.78-0.07L36.78-0.07L21.37-0.07L24.71-7.17L32.02-7.17Q32.66-7.17 33.16-7.67Q33.65-8.17 33.65-8.88L33.65-8.88L33.65-14.56L4.62-14.56L4.62-21.30L35.22-21.30L43.88-26.27L10.37-26.27L10.37-31.81L4.47-31.81L4.47-44.80L11.72-44.80L8.95-51.05L19.60-51.05L22.37-44.80L29.82-44.80L27.12-51.05L37.77-51.05L40.54-44.80L47.36-44.80L50.13-51.05L60.78-51.05L58.01-44.80L58.79-44.80Q60.21-44.80 61.70-44.23L61.70-44.23Q63.05-43.67 64.18-42.53L64.18-42.53Q65.11-41.61 65.89-40.04L65.89-40.04Q66.53-38.62 66.53-37.06L66.53-37.06L66.53-31.81L60.78-31.81ZM56.66-32.66L56.66-35.64Q56.66-36.57 56.09-37.13L56.09-37.13Q55.38-37.84 54.53-37.84L54.53-37.84L14.27-37.84L14.27-32.66L56.66-32.66Z" transform="translate(5 60.989000000000004)" data-glyph-w="71.00000000000001"></path><path fill="#2921B7" d="M54.39-11.01L54.39-5.96L55.59-6.04L55.03-8.73L61.70-8.73L63.47-0.14L56.80-0.14L56.59-1.07L37.06-0.07L37.06-5.04L47.22-5.61L47.22-11.01L37.77-11.01L37.77-45.44L47.22-45.44L47.22-51.19L54.39-51.19L54.39-45.44L63.83-45.44L63.83-16.26Q63.83-14.06 62.34-12.53Q60.85-11.01 58.72-11.01L58.72-11.01L54.39-11.01ZM55.95-40.61L54.39-40.61L54.39-15.76L55.17-15.76Q55.95-15.76 55.95-16.54L55.95-16.54L55.95-40.61ZM45.65-15.76L47.22-15.76L47.22-40.61L45.65-40.61L45.65-15.76ZM36.64-51.19L36.64-46.22L1.42-46.22L1.42-51.19L36.64-51.19ZM2.41-38.70L2.41-42.32L2.41-43.67L35.71-43.67L35.71-42.32L35.71-38.70L35.71-37.70Q35.71-36.07 35.07-34.65Q34.44-33.23 33.30-32.16Q32.16-31.10 30.71-30.49Q29.25-29.89 27.55-29.89L27.55-29.89L2.41-29.89L2.41-31.24L2.41-34.79L2.41-38.70ZM25.56-37.06L25.56-38.70L12.57-38.70L12.57-34.79L23.22-34.79Q24.21-34.79 24.89-35.43Q25.56-36.07 25.56-37.06L25.56-37.06ZM10.37-10.15L10.37-0.07L1.42-0.07L1.42-23.22L1.42-28.19L27.05-28.19L36.14-28.19L36.14-23.22L36.14-7.17Q36.14-5.68 35.54-4.37Q34.93-3.05 33.90-2.09Q32.87-1.14 31.49-0.57Q30.10 0 28.54 0L28.54 0L23.36 0L25.28-4.90Q26.06-4.90 26.55-5.40Q27.05-5.89 27.05-6.60L27.05-6.60L27.05-10.15L23.15-10.15L23.15-0.07L14.41-0.07L14.41-10.15L10.37-10.15ZM27.05-23.22L10.37-23.22L10.37-15.12L11.86-15.12L10.93-21.51L17.54-21.51L18.53-15.12L19.10-15.12L20.02-21.51L26.70-21.51L25.70-15.12L27.05-15.12L27.05-23.22Z" transform="translate(76.00000000000001 60.989000000000004)" data-glyph-w="65.32000000000001"></path></g></svg></g> <!----></g>  <!----></svg>