<svg data-noselect="" viewBox="0 0 800 600" width="1600" height="1200" preserveAspectRatio="none" version="1.1" xmlns="http://www.w3.org/2000/svg" style="background: rgb(255, 255, 255);"><defs></defs> <g id="shape_JBMmGUXjms" transform="translate(247.91483544959,220.18294525146) rotate(5,88.537118428483,95.388997530549) scale(1,1)" filter="" style="cursor: move; opacity: 1;"><g><rect fill="rgba(0,0,0,0)" width="197.07423685697" height="210.7779950611" x="-10" y="-10"></rect><svg version="1.1" id="图层_1" xmlns="http://www.w3.org/2000/svg" xmlns:xlink="http://www.w3.org/1999/xlink" x="0px" y="0px" width="177.07423685697" height="190.7779950611" viewBox="13.960136413574219 9.796470642089844 172.03985595703125 185.35400390625" style="enable-background:new 0 0 200 200;" xml:space="preserve" preserveAspectRatio="none" data-parent="shape_JBMmGUXjms">
<style type="text/css">
	.st0{fill:#15BCC8;}
	.st1{fill:#1730C6;}
	.st2{fill:#033CDD;}
</style>
<g>
	<path class="" d="M174.46,147.38c1.79-1.26,3.47-2.61,5.04-3.93c-3.41,3.92-7.4,7.55-11.89,10.66
		c-29.87,20.88-71.01,13.59-91.89-16.28S62.15,66.81,92.02,45.94c17.4-12.14,38.58-14.83,57.34-8.99
		c-15.17-2.56-31.34,0.69-44.97,10.26c-27.62,19.32-34.37,57.51-15.05,85.13C108.67,160.05,146.74,166.72,174.46,147.38z" fill="#15BCC8"></path>
	<path class="" d="M186,152.1c-21.2,33.1-62.1,50.5-102.3,40C33.9,179,4,128,17,78.1C25.6,45.2,50.7,21,81.1,12
		C62,23.4,47.2,42,41.1,65.3c-12.3,47,15.9,95.1,62.9,107.3C134.2,180.5,164.7,171.7,186,152.1z" fill="#1730C6"></path>
	<path class="" d="M182.62,45.27c-11.32-11.12-26.37-18.65-43.35-20.56c-40.63-4.63-77.27,24.53-82,65.14
		c-1.91,16.98,2.04,33.37,10.29,46.9C51.75,121.3,43.04,98.98,45.75,75.42c4.63-40.63,41.36-69.77,82-65.14
		C151.44,12.81,171.14,26.34,182.62,45.27z" fill="#033CDD"></path>
</g>
</svg></g> <!----></g><g id="shape_p7cq4kc1mh" transform="translate(347.68518066406,264.57591629028) rotate(0,138.82,43.00825) scale(1,1)" filter="" style="cursor: move; opacity: 1;"><g><svg xmlns="http://www.w3.org/2000/svg" version="1.1" xmlns:xlink="http://www.w3.org/1999/xlink" overflow="hidden" style="top:0; left: 0" width="151.32000000000002" height="86.0165" viewBox="0 0 146.32000000000002 86.0165" preserveAspectRatio="none" data-parent="shape_p7cq4kc1mh"><rect fill="rgba(0,0,0,0)" width="151.32000000000002" height="86.0165"></rect> <rect opacity="0"></rect><g transform="translate(0 0)" data-width="141.32000000000002"><path fill="#2921B7" d="M60.78-31.81L60.78-27.12L50.27-21.30L66.53-21.30L66.53-14.56L43.52-14.56L43.52-6.82Q43.52-3.98 41.57-2.02Q39.62-0.07 36.78-0.07L36.78-0.07L21.37-0.07L24.71-7.17L32.02-7.17Q32.66-7.17 33.16-7.67Q33.65-8.17 33.65-8.88L33.65-8.88L33.65-14.56L4.62-14.56L4.62-21.30L35.22-21.30L43.88-26.27L10.37-26.27L10.37-31.81L4.47-31.81L4.47-44.80L11.72-44.80L8.95-51.05L19.60-51.05L22.37-44.80L29.82-44.80L27.12-51.05L37.77-51.05L40.54-44.80L47.36-44.80L50.13-51.05L60.78-51.05L58.01-44.80L58.79-44.80Q60.21-44.80 61.70-44.23L61.70-44.23Q63.05-43.67 64.18-42.53L64.18-42.53Q65.11-41.61 65.89-40.04L65.89-40.04Q66.53-38.62 66.53-37.06L66.53-37.06L66.53-31.81L60.78-31.81ZM56.66-32.66L56.66-35.64Q56.66-36.57 56.09-37.13L56.09-37.13Q55.38-37.84 54.53-37.84L54.53-37.84L14.27-37.84L14.27-32.66L56.66-32.66Z" transform="translate(5 60.989000000000004)" data-glyph-w="71.00000000000001"></path><path fill="#2921B7" d="M54.39-11.01L54.39-5.96L55.59-6.04L55.03-8.73L61.70-8.73L63.47-0.14L56.80-0.14L56.59-1.07L37.06-0.07L37.06-5.04L47.22-5.61L47.22-11.01L37.77-11.01L37.77-45.44L47.22-45.44L47.22-51.19L54.39-51.19L54.39-45.44L63.83-45.44L63.83-16.26Q63.83-14.06 62.34-12.53Q60.85-11.01 58.72-11.01L58.72-11.01L54.39-11.01ZM55.95-40.61L54.39-40.61L54.39-15.76L55.17-15.76Q55.95-15.76 55.95-16.54L55.95-16.54L55.95-40.61ZM45.65-15.76L47.22-15.76L47.22-40.61L45.65-40.61L45.65-15.76ZM36.64-51.19L36.64-46.22L1.42-46.22L1.42-51.19L36.64-51.19ZM2.41-38.70L2.41-42.32L2.41-43.67L35.71-43.67L35.71-42.32L35.71-38.70L35.71-37.70Q35.71-36.07 35.07-34.65Q34.44-33.23 33.30-32.16Q32.16-31.10 30.71-30.49Q29.25-29.89 27.55-29.89L27.55-29.89L2.41-29.89L2.41-31.24L2.41-34.79L2.41-38.70ZM25.56-37.06L25.56-38.70L12.57-38.70L12.57-34.79L23.22-34.79Q24.21-34.79 24.89-35.43Q25.56-36.07 25.56-37.06L25.56-37.06ZM10.37-10.15L10.37-0.07L1.42-0.07L1.42-23.22L1.42-28.19L27.05-28.19L36.14-28.19L36.14-23.22L36.14-7.17Q36.14-5.68 35.54-4.37Q34.93-3.05 33.90-2.09Q32.87-1.14 31.49-0.57Q30.10 0 28.54 0L28.54 0L23.36 0L25.28-4.90Q26.06-4.90 26.55-5.40Q27.05-5.89 27.05-6.60L27.05-6.60L27.05-10.15L23.15-10.15L23.15-0.07L14.41-0.07L14.41-10.15L10.37-10.15ZM27.05-23.22L10.37-23.22L10.37-15.12L11.86-15.12L10.93-21.51L17.54-21.51L18.53-15.12L19.10-15.12L20.02-21.51L26.70-21.51L25.70-15.12L27.05-15.12L27.05-23.22Z" transform="translate(76.00000000000001 60.989000000000004)" data-glyph-w="65.32000000000001"></path></g></svg></g> <!----></g><g id="shape_CmKqzpHpMa" transform="translate(347.68518066406,336) rotate(0,101.81640625,16.592407226562) scale(1,1)" filter="" style="cursor: move; opacity: 1;"><g><svg xmlns="http://www.w3.org/2000/svg" version="1.1" xmlns:xlink="http://www.w3.org/1999/xlink" overflow="hidden" style="top:0; left: 0" width="244.19921875" height="33.184814453125" viewBox="0 0 239.19921875 33.184814453125" preserveAspectRatio="none" data-parent="shape_CmKqzpHpMa"><rect fill="rgba(0,0,0,0)" width="244.19921875" height="33.184814453125"></rect> <rect opacity="0"></rect><g transform="translate(0 0)" data-width="234.19921875"><path fill="#2921B7" d="M13.43 0L1.90 0L1.90 0L1.90-17.94L1.90-17.94L3.11-17.94L4.33-17.94L4.33-17.94L4.33-2.15L4.33-2.15L13.43-2.15L13.43-2.15L13.43-1.07L13.43 0L13.43 0Z" transform="translate(5 23.193359375)" data-glyph-w="13.90380859375"></path><path fill="#2921B7" d="M15.41 0L2.15 0L2.15 0L2.15-17.94L2.15-17.94L15.27-17.94L15.27-17.94L15.27-16.87L15.27-15.80L15.27-15.80L4.58-15.80L4.58-15.80L4.58-10.31L4.58-10.31L14.34-10.31L14.34-9.24L14.34-8.17L14.34-8.17L4.58-8.17L4.58-8.17L4.58-2.15L4.58-2.15L15.41-2.15L15.41-2.15L15.41-1.07L15.41 0L15.41 0Z" transform="translate(18.90380859375 23.193359375)" data-glyph-w="16.6748046875"></path><path fill="#2921B7" d="M0.35 0L0.35 0L7.13-17.94L8.51-17.94L9.90-17.94L16.35 0L16.35 0L15.04 0L13.73 0L13.73 0L11.91-5.20L11.91-5.20L4.74-5.20L4.74-5.20L2.86 0L2.86 0L1.61 0L0.35 0ZM8.40-15.31L8.40-15.31L5.52-7.35L5.52-7.35L11.17-7.35L11.17-7.35L8.40-15.31L8.40-15.31Z" transform="translate(35.57861328125 23.193359375)" data-glyph-w="16.6748046875"></path><path fill="#2921B7" d="M2.20 0L2.20 0L2.20-17.94L2.20-17.94L3.41-17.94L3.41-17.94L10.55-17.94Q13.40-17.94 14.89-16.71Q16.38-15.47 16.38-13.07L16.38-13.07Q16.38-10.72 14.83-9.39L14.83-9.39Q14.44-9.06 13.99-8.80L13.99-8.80L13.99-8.80L14.39-8.61Q16.03-7.67 16.09-5.44L16.09-5.44L16.19-2.17Q16.21-1.37 16.39-1.01Q16.58-0.66 17.10-0.40L17.10-0.40L17.10-0.01L14.11-0.01Q14.01-0.23 13.92-1.16Q13.82-2.09 13.77-3.22L13.77-3.22L13.72-4.64Q13.67-6.31 12.90-7.03Q12.13-7.74 10.39-7.74L10.39-7.74L4.63-7.74L4.63-7.74L4.63 0L4.63 0L3.42 0L2.20 0ZM4.63-15.91L4.63-9.84L4.63-9.84L10.63-9.84Q12.32-9.84 13.10-10.58Q13.88-11.32 13.88-12.92L13.88-12.92Q13.88-14.47 13.06-15.19Q12.23-15.91 10.45-15.91L10.45-15.91L4.63-15.91L4.63-15.91Z" transform="translate(52.25341796875 23.193359375)" data-glyph-w="18.05419921875"></path><path fill="#2921B7" d="M4.25-14.64L4.25 0L4.25 0L3.08 0L1.90 0L1.90 0L1.90-17.94L1.90-17.94L3.36-17.94L4.82-17.94L4.82-17.94L13.81-3.36L13.81-3.36L13.81-3.36L13.81-17.94L13.81-17.94L14.98-17.94L16.15-17.94L16.15-17.94L16.15 0L14.82 0L13.49 0L4.25-14.64L4.25-14.64L4.25-14.64Z" transform="translate(70.3076171875 23.193359375)" data-glyph-w="18.05419921875"></path><path fill="#2921B7" d="M2.27 0L2.27 0L2.27-17.94L2.27-17.94L3.48-17.94L4.70-17.94L4.70-17.94L4.70 0L4.70 0L3.49 0L2.27 0Z" transform="translate(88.36181640625 23.193359375)" data-glyph-w="6.94580078125"></path><path fill="#2921B7" d="M4.25-14.64L4.25 0L4.25 0L3.08 0L1.90 0L1.90 0L1.90-17.94L1.90-17.94L3.36-17.94L4.82-17.94L4.82-17.94L13.81-3.36L13.81-3.36L13.81-3.36L13.81-17.94L13.81-17.94L14.98-17.94L16.15-17.94L16.15-17.94L16.15 0L14.82 0L13.49 0L4.25-14.64L4.25-14.64L4.25-14.64Z" transform="translate(95.3076171875 23.193359375)" data-glyph-w="18.05419921875"></path><path fill="#2921B7" d="M9.55 0.49L9.55 0.49Q5.81 0.49 3.50-2.12Q1.20-4.72 1.20-8.96L1.20-8.96Q1.20-13.21 3.55-15.82Q5.91-18.43 9.72-18.43L9.72-18.43Q12.66-18.43 14.78-16.78Q16.89-15.14 17.26-12.56L17.26-12.56L17.26-12.56L14.92-12.56L14.92-12.56Q14.58-14.34 13.18-15.31Q11.79-16.28 9.57-16.28L9.57-16.28Q6.95-16.28 5.32-14.25Q3.70-12.22 3.70-8.92L3.70-8.92Q3.70-5.42 5.27-3.50Q6.84-1.59 9.69-1.59L9.69-1.59Q12.46-1.59 14.17-3.61L14.17-3.61Q14.44-3.93 14.66-4.28L14.66-4.28Q14.95-4.76 15.16-5.62Q15.36-6.47 15.36-7.24L15.36-7.24L15.36-7.46L15.36-7.46L9.73-7.46L9.73-9.51L17.59-9.51L17.59-0.01L16.08-0.01L15.49-2.27L15.49-2.27L15.36-2.11Q13.15 0.49 9.55 0.49Z" transform="translate(113.36181640625 23.193359375)" data-glyph-w="19.44580078125"></path><path fill="#2921B7" d="" transform="translate(132.8076171875 23.193359375)" data-glyph-w="6.94580078125"></path><path fill="#2921B7" d="M3.37 0L2.15 0L2.15-17.94L2.15-17.94L14.58-17.94L14.58-17.94L14.58-16.87L14.58-15.80L14.58-15.80L4.58-15.80L4.58-15.80L4.58-10.31L4.58-10.31L13.33-10.31L13.33-9.24L13.33-8.17L13.33-8.17L4.58-8.17L4.58-8.17L4.58 0L3.37 0Z" transform="translate(139.75341796875 23.193359375)" data-glyph-w="15.27099609375"></path><path fill="#2921B7" d="M16.10-17.94L16.10-6.58Q16.10-3.26 14.23-1.39Q12.37 0.49 9.05 0.49L9.05 0.49Q5.59 0.49 3.78-1.31Q1.98-3.11 1.98-6.58L1.98-6.58L1.98-17.94L1.98-17.94L3.19-17.94L4.41-17.94L4.41-17.94L4.41-6.76Q4.41-4.26 5.59-2.96Q6.77-1.66 9.05-1.66L9.05-1.66Q11.32-1.66 12.49-2.96Q13.67-4.26 13.67-6.76L13.67-6.76L13.67-17.94L13.67-17.94L14.88-17.94L16.10-17.94L16.10-17.94Z" transform="translate(155.0244140625 23.193359375)" data-glyph-w="18.05419921875"></path><path fill="#2921B7" d="M15.08-12.74L12.84-12.74L12.84-12.74Q12.68-14.44 11.51-15.36Q10.33-16.28 8.34-16.28L8.34-16.28Q6.29-16.28 5.22-15.49Q4.16-14.70 4.16-13.17L4.16-13.17Q4.16-12.13 4.87-11.62L4.87-11.62Q5.58-11.11 7.71-10.61L7.71-10.61L10.84-9.86Q13.35-9.27 14.43-8.09L14.43-8.09Q15.50-6.93 15.50-4.81L15.50-4.81Q15.50-2.37 13.65-0.94Q11.80 0.49 8.64 0.49L8.64 0.49Q5.13 0.49 3.15-1.16L3.15-1.16Q1.22-2.78 1.22-5.60L1.22-5.60L1.22-5.74L1.22-5.74L3.45-5.74L3.45-5.74Q3.52-3.78 4.87-2.72Q6.23-1.66 8.64-1.66L8.64-1.66Q10.88-1.66 12.04-2.43Q13.20-3.20 13.20-4.69L13.20-4.69Q13.20-5.98 12.43-6.60L12.43-6.60Q11.67-7.21 9.38-7.76L9.38-7.76L6.25-8.51Q3.88-9.07 2.87-10.07L2.87-10.07Q1.86-11.07 1.86-12.84L1.86-12.84Q1.86-15.42 3.61-16.93Q5.36-18.43 8.34-18.43L8.34-18.43Q11.36-18.43 13.16-16.92Q14.95-15.41 15.08-12.74L15.08-12.74L15.08-12.74Z" transform="translate(173.07861328125 23.193359375)" data-glyph-w="16.6748046875"></path><path fill="#2921B7" d="M2.27 0L2.27 0L2.27-17.94L2.27-17.94L3.48-17.94L4.70-17.94L4.70-17.94L4.70 0L4.70 0L3.49 0L2.27 0Z" transform="translate(189.75341796875 23.193359375)" data-glyph-w="6.94580078125"></path><path fill="#2921B7" d="M9.72 0.49L9.72 0.49Q5.81 0.49 3.39-2.12Q0.98-4.72 0.98-8.96L0.98-8.96Q0.98-13.21 3.39-15.82Q5.81-18.43 9.72-18.43L9.72-18.43Q13.65-18.43 16.06-15.82Q18.47-13.21 18.47-8.96L18.47-8.96Q18.47-4.72 16.06-2.12Q13.65 0.49 9.72 0.49L9.72 0.49ZM9.72-1.66L9.72-1.66Q12.52-1.66 14.25-3.67Q15.97-5.69 15.97-8.96L15.97-8.96Q15.97-12.24 14.25-14.26Q12.52-16.28 9.72-16.28L9.72-16.28Q6.92-16.28 5.20-14.26Q3.48-12.24 3.48-8.96L3.48-8.96Q3.48-5.69 5.20-3.67Q6.92-1.66 9.72-1.66L9.72-1.66Z" transform="translate(196.69921875 23.193359375)" data-glyph-w="19.44580078125"></path><path fill="#2921B7" d="M4.25-14.64L4.25 0L4.25 0L3.08 0L1.90 0L1.90 0L1.90-17.94L1.90-17.94L3.36-17.94L4.82-17.94L4.82-17.94L13.81-3.36L13.81-3.36L13.81-3.36L13.81-17.94L13.81-17.94L14.98-17.94L16.15-17.94L16.15-17.94L16.15 0L14.82 0L13.49 0L4.25-14.64L4.25-14.64L4.25-14.64Z" transform="translate(216.14501953125 23.193359375)" data-glyph-w="18.05419921875"></path></g></svg></g> <!----></g>  <!----></svg>